<?xml version="1.0" encoding="utf-8"?>
<!-- Generator: Adobe Illustrator 26.3.1, SVG Export Plug-In . SVG Version: 6.00 Build 0)  -->
<svg version="1.1"
	 id="svg2" xmlns:inkscape="http://www.inkscape.org/namespaces/inkscape" xmlns:sodipodi="http://sodipodi.sourceforge.net/DTD/sodipodi-0.dtd" xmlns:rdf="http://www.w3.org/1999/02/22-rdf-syntax-ns#" xmlns:dc="http://purl.org/dc/elements/1.1/" xmlns:ns1="http://sozi.baierouge.fr" xmlns:svg="http://www.w3.org/2000/svg" xmlns:cc="http://creativecommons.org/ns#" inkscape:version="0.47 r22583" sodipodi:docname="Neues Dokument 1"
	 xmlns="http://www.w3.org/2000/svg" xmlns:xlink="http://www.w3.org/1999/xlink" x="0px" y="0px" viewBox="0 0 847.2 847.8"
	 style="enable-background:new 0 0 847.2 847.8;" xml:space="preserve">
<style type="text/css">
	.st0{fill:#FFFFFF;}
</style>
<rect class="st0" width="847.2" height="847.2"/>
<circle cx="423.9" cy="423.9" r="423.9"/>
<circle class="st0" cx="423.9" cy="423.9" r="336.6"/>
<sodipodi:namedview  bordercolor="#666666" borderopacity="1.0" id="base" inkscape:current-layer="layer1" inkscape:cx="402.33775" inkscape:cy="378.13262" inkscape:document-units="px" inkscape:pageopacity="0.0" inkscape:pageshadow="2" inkscape:window-height="675" inkscape:window-maximized="1" inkscape:window-width="1024" inkscape:window-x="-4" inkscape:window-y="40" inkscape:zoom="0.35" pagecolor="#ffffff" showgrid="false">
	</sodipodi:namedview>
<path id="path4056-4" d="M384,107.3c-70.1-1.2-150.4,58.9-170.8,100.4l-9.9-44.5l-36.1,37.6L284.1,744l53.2,22.9l-58.5-275.6
	c0,0,11.3-26.2,35.3-43.5c10.2-7.4,26-18.3,42-21.3c4.5-0.9,8.8-1.3,12.8-1.2c1.3,0,2.6,0.1,3.9,0.2c15.5,1.1,27,8.4,35.6,17.8
	c11.4,12.5,19.2,28,30.7,39.8c9.9,10.2,23.4,14.3,38.8,14.4c17.4,0.1,27.9-3.7,39.9-9.5c11.9-5.8,22.9-11.5,37.9-11.4
	c20.8,0.2,32.6,6.6,44.4,13.5c17.6,10.3,40,20.4,70.8,19.2c2.9-0.1,5.5-0.3,8.1-0.5c2.5-0.2,4.9-0.3,7.1-0.5
	c13.5-1.3,22.8-3.8,38.3-10.3c14.4-6,27.2-13.6,35.3-28c1.7-13.7,2.6-27.7,2.6-41.9c0-35.7-5.7-70.1-16.2-102.4
	c-0.5-1.4-2-4.5-2.9-5.5c-1-1.1-3.1-2.9-5.1-3.4c-5.4-1.4-11.4-2.7-15.6-6.9c-6.6-6.6-9.5-21.9-24.8-39.3c-23-26-86.4-3.1-106.5-1.2
	c-33.2,3.1-51.4-13.8-62.7-51.2C496.2,112.9,448.4,112,390.8,107.7C388.6,107.5,386.3,107.4,384,107.3z M369.1,439.9
	c-3.1,0.1-6.5,0.4-10.3,1.1c-7.3,1.4-16.7,6.3-25,11.4l72.1,330.3l49.9,21.1l-34.2-158.6c6.5-10,21.3-11.7,33.4-18.2
	c10.1-5.4,19.4-16.8,38-17.1c49.6-0.7,47.9,49.6,91.4,53.4c39.7,3.5,76.7-46.8,99.8-21.7c34-40.4,58.5-89,70.2-142.3
	c-7.1,4.2-14.8,8.2-22.8,11.6c-1.1,0.5-2.2,1.1-3.3,1.5c-19.8,8-33.3,10.6-57.1,11.5c-34.4,1.3-60.1-10.2-78.8-21.2
	c-11.7-6.9-19-11.3-37.1-11.5c-11.3-0.1-19.2,3.9-31.2,9.8c-12.9,6.3-26.8,11.2-46.6,11c-18-0.1-35.9-5.2-49.2-18.9
	c-13.4-13.9-21.5-29.9-30.9-40.2C389.8,444.7,382.5,439.5,369.1,439.9z"/>
</svg>
