<?xml version="1.0" encoding="utf-8"?>
<!-- Generator: Adobe Illustrator 26.2.1, SVG Export Plug-In . SVG Version: 6.00 Build 0)  -->
<svg version="1.1"
	 id="svg2" inkscape:version="0.47 r22583" sodipodi:docname="Neues Dokument 1" xmlns:cc="http://creativecommons.org/ns#" xmlns:dc="http://purl.org/dc/elements/1.1/" xmlns:inkscape="http://www.inkscape.org/namespaces/inkscape" xmlns:ns1="http://sozi.baierouge.fr" xmlns:rdf="http://www.w3.org/1999/02/22-rdf-syntax-ns#" xmlns:sodipodi="http://sodipodi.sourceforge.net/DTD/sodipodi-0.dtd" xmlns:svg="http://www.w3.org/2000/svg"
	 xmlns="http://www.w3.org/2000/svg" xmlns:xlink="http://www.w3.org/1999/xlink" x="0px" y="0px" viewBox="0 0 847.2 847.8"
	 style="enable-background:new 0 0 847.2 847.8;" xml:space="preserve">
<style type="text/css">
	.st0{fill:#FFFFFF;}
	.st1{fill:#FF0000;}
</style>
<circle cx="423.9" cy="423.9" r="423.9"/>
<circle class="st0" cx="423.9" cy="423.9" r="336.6"/>
<sodipodi:namedview  bordercolor="#666666" borderopacity="1.0" id="base" inkscape:current-layer="layer1" inkscape:cx="402.33775" inkscape:cy="378.13262" inkscape:document-units="px" inkscape:pageopacity="0.0" inkscape:pageshadow="2" inkscape:window-height="675" inkscape:window-maximized="1" inkscape:window-width="1024" inkscape:window-x="-4" inkscape:window-y="40" inkscape:zoom="0.35" pagecolor="#ffffff" showgrid="false">
	</sodipodi:namedview>
<g>
	<path id="path2838" class="st1" d="M442.9,744.1c-5-0.5-9.7-1.2-10.4-1.6c-1.4-0.8-0.7-2.1,27.8-51.1c6.8-11.7,22.1-38.2,33.9-58.7
		c11.9-20.6,25.3-43.7,29.9-51.4c4.6-7.7,9.6-16.5,11.2-19.4c1.6-2.9,7-12.2,12-20.7l9-15.4l-1.6-3.1c-0.9-1.7-3.1-5.3-5-7.9
		c-20.4-28.6-47.8-42.4-91.7-46c-16.9-1.4-34.2-1.3-65.2,0.4c-53.3,3-62.6,3.4-83.1,3.4c-52.4,0-89.1-6.9-124.1-23.5
		c-25.1-11.9-46.6-28.2-67-50.7l-6.1-6.8l0.6-6.8c0.9-9.5,5.9-33.5,9.8-47c14.6-50.1,38.9-92.3,74.6-129.9
		c9.4-9.9,29.1-27.5,37.1-33.2l3.3-2.3l9.5,9.7c30.4,31.1,67.3,44.9,120.1,44.9c25.9,0,48.8-2.5,111.1-12.1
		c49.6-7.7,73.1-9.8,98.5-8.9c34.2,1.2,57.3,7.7,80.1,22.5c10.1,6.6,27.2,24,35.1,35.9c7.2,10.7,15.3,27,20.6,41.5l3.5,9.4l-5.7,10
		c-3.1,5.5-11.7,20.4-19.1,33.3c-7.4,12.8-14.1,24.6-15,26.2c-3.5,6.2-24.2,41.8-37.2,64.1c-7.5,12.8-15,25.7-16.7,28.6
		c-6,10.4-41,70.4-64.3,110.2c-8.7,14.8-39.9,68.5-43.2,74.2c-1.4,2.4-8.3,14.4-15.4,26.7c-7.1,12.3-14.7,25.6-17,29.6
		c-10.1,17.8-13,22.9-13.9,23.9c-0.5,0.6-3.5,1.4-6.6,1.7c-3.1,0.3-6.7,0.7-8,0.9C453.1,744.8,448,744.6,442.9,744.1L442.9,744.1z"
		/>
	<path id="path2834" d="M335.8,729.5c-8.9-1.1-16.3-2.4-16.3-2.9s15.8-31.7,35-69.3c19.3-37.6,34.8-68.6,34.5-68.9
		c-0.9-0.9-12.3-3-24.4-4.6c-14.7-1.9-30.5-3.1-66-4.9c-44.6-2.3-64.4-4.7-85.7-10.2c-63.6-16.5-94.8-59-103.5-141.2
		c-2.3-21.5-3.4-21,11.4-6.1c38.6,39,82.7,57.7,147.8,62.9c17.4,1.4,63,0.6,92.7-1.6c29.9-2.2,63.6-2.9,76.8-1.6
		c14,1.4,27.6,4.8,35.8,8.9c9.6,4.8,9.4,3.7,2.7,16.4c-10.1,19-32.8,60.4-60.5,110.3c-25.9,46.6-50.3,91.1-58.7,107
		c-2.3,4.4-4.5,8-4.8,7.9C352.3,731.5,344.8,730.6,335.8,729.5L335.8,729.5z"/>
</g>
</svg>
